<?xml version="1.0" encoding="UTF-8" standalone="no"?>
<!DOCTYPE svg PUBLIC "-//W3C//DTD SVG 1.1//EN"
 "http://www.w3.org/Graphics/SVG/1.1/DTD/svg11.dtd">
<!-- Generated by graphviz version 2.43.0 (0)
 -->
<!-- Title: finite_state_machine Pages: 1 -->
<svg width="1073pt" height="1161pt"
 viewBox="0.00 0.00 1072.71 1161.29" xmlns="http://www.w3.org/2000/svg" xmlns:xlink="http://www.w3.org/1999/xlink">
<g id="graph0" class="graph" transform="scale(1 1) rotate(0) translate(4 1157.29)">
<title>finite_state_machine</title>
<polygon fill="white" stroke="transparent" points="-4,4 -4,-1157.29 1068.71,-1157.29 1068.71,4 -4,4"/>
<!-- Q10 -->
<g id="node1" class="node">
<title>Q10</title>
<ellipse fill="none" stroke="black" cx="167.95" cy="-1105.09" rx="44.38" ry="44.38"/>
<ellipse fill="none" stroke="black" cx="167.95" cy="-1105.09" rx="48.39" ry="48.39"/>
<text text-anchor="middle" x="167.95" y="-1101.39" font-family="Times,serif" font-size="14.00">Comma*</text>
</g>
<!-- Q11 -->
<g id="node2" class="node">
<title>Q11</title>
<ellipse fill="none" stroke="black" cx="167.95" cy="-998.09" rx="36.3" ry="36.3"/>
<ellipse fill="none" stroke="black" cx="167.95" cy="-998.09" rx="40.29" ry="40.29"/>
<text text-anchor="middle" x="167.95" y="-994.39" font-family="Times,serif" font-size="14.00">Colon*</text>
</g>
<!-- Qerr -->
<g id="node3" class="node">
<title>Qerr</title>
<ellipse fill="none" stroke="black" cx="764.03" cy="-760.09" rx="27.12" ry="27.12"/>
<ellipse fill="none" stroke="black" cx="764.03" cy="-760.09" rx="31.1" ry="31.1"/>
<text text-anchor="middle" x="764.03" y="-756.39" font-family="Times,serif" font-size="14.00">Qerr</text>
</g>
<!-- Qerr3 -->
<g id="node4" class="node">
<title>Qerr3</title>
<ellipse fill="none" stroke="black" cx="1033.42" cy="-478.09" rx="27.12" ry="27.12"/>
<ellipse fill="none" stroke="black" cx="1033.42" cy="-478.09" rx="31.1" ry="31.1"/>
<text text-anchor="middle" x="1033.42" y="-474.39" font-family="Times,serif" font-size="14.00">Qerr</text>
</g>
<!-- Qerr4 -->
<g id="node5" class="node">
<title>Qerr4</title>
<ellipse fill="none" stroke="black" cx="1033.42" cy="-195.09" rx="27.12" ry="27.12"/>
<ellipse fill="none" stroke="black" cx="1033.42" cy="-195.09" rx="31.1" ry="31.1"/>
<text text-anchor="middle" x="1033.42" y="-191.39" font-family="Times,serif" font-size="14.00">Qerr</text>
</g>
<!-- Q1 -->
<g id="node6" class="node">
<title>Q1</title>
<ellipse fill="none" stroke="black" cx="451.19" cy="-831.09" rx="38.19" ry="38.19"/>
<text text-anchor="middle" x="451.19" y="-827.39" font-family="Times,serif" font-size="14.00">Literal*</text>
</g>
<!-- Q1&#45;&gt;Q1 -->
<g id="edge3" class="edge">
<title>Q1&#45;&gt;Q1</title>
<path fill="none" stroke="black" d="M424.32,-858.63C419.53,-873.67 428.49,-887.44 451.19,-887.44 468.58,-887.44 477.9,-879.37 479.17,-868.84"/>
<polygon fill="black" stroke="black" points="482.62,-868.2 478.07,-858.63 475.66,-868.95 482.62,-868.2"/>
<text text-anchor="middle" x="451.19" y="-891.24" font-family="Times,serif" font-size="14.00">A&#45;Za&#45;z А&#45;ЯЁа&#45;яё _ . 0&#45;9</text>
</g>
<!-- Q3 -->
<g id="node7" class="node">
<title>Q3</title>
<ellipse fill="none" stroke="black" cx="167.95" cy="-760.09" rx="50.09" ry="50.09"/>
<text text-anchor="middle" x="167.95" y="-756.39" font-family="Times,serif" font-size="14.00">Dollar sign</text>
</g>
<!-- Q3&#45;&gt;Qerr -->
<g id="edge18" class="edge">
<title>Q3&#45;&gt;Qerr</title>
<path fill="none" stroke="black" d="M218.07,-760.09C332.7,-760.09 616.15,-760.09 722.15,-760.09"/>
<polygon fill="black" stroke="black" points="722.43,-763.59 732.43,-760.09 722.43,-756.59 722.43,-763.59"/>
<text text-anchor="middle" x="451.19" y="-763.89" font-family="Times,serif" font-size="14.00">*</text>
</g>
<!-- Q3&#45;&gt;Q1 -->
<g id="edge4" class="edge">
<title>Q3&#45;&gt;Q1</title>
<path fill="none" stroke="black" d="M216.66,-772.14C268.96,-785.34 352.31,-806.38 404,-819.43"/>
<polygon fill="black" stroke="black" points="403.35,-822.88 413.9,-821.93 405.06,-816.09 403.35,-822.88"/>
<text text-anchor="middle" x="300.95" y="-809.89" font-family="Times,serif" font-size="14.00">A&#45;Za&#45;z А&#45;ЯЁа&#45;яё _ .</text>
</g>
<!-- Q4 -->
<g id="node8" class="node">
<title>Q4</title>
<ellipse fill="none" stroke="black" cx="451.19" cy="-620.09" rx="71.49" ry="71.49"/>
<text text-anchor="middle" x="451.19" y="-616.39" font-family="Times,serif" font-size="14.00">Number base16*</text>
</g>
<!-- Q3&#45;&gt;Q4 -->
<g id="edge6" class="edge">
<title>Q3&#45;&gt;Q4</title>
<path fill="none" stroke="black" d="M213.2,-738.06C257.27,-716.13 325.67,-682.08 377.69,-656.18"/>
<polygon fill="black" stroke="black" points="379.48,-659.2 386.87,-651.61 376.36,-652.94 379.48,-659.2"/>
<text text-anchor="middle" x="300.95" y="-725.89" font-family="Times,serif" font-size="14.00">0</text>
</g>
<!-- Q4&#45;&gt;Qerr -->
<g id="edge20" class="edge">
<title>Q4&#45;&gt;Qerr</title>
<path fill="none" stroke="black" d="M516.6,-649.1C579.88,-677.6 674.23,-720.1 725.9,-743.37"/>
<polygon fill="black" stroke="black" points="724.48,-746.57 735.04,-747.49 727.36,-740.19 724.48,-746.57"/>
<text text-anchor="middle" x="601.43" y="-713.89" font-family="Times,serif" font-size="14.00">A&#45;Za&#45;z А&#45;ЯЁа&#45;яё _ .</text>
</g>
<!-- Q4&#45;&gt;Q4 -->
<g id="edge7" class="edge">
<title>Q4&#45;&gt;Q4</title>
<path fill="none" stroke="black" d="M424.14,-686.44C427.09,-699.93 436.1,-709.59 451.19,-709.59 462.39,-709.59 470.24,-704.27 474.75,-696.01"/>
<polygon fill="black" stroke="black" points="478.11,-697.03 478.24,-686.44 471.53,-694.64 478.11,-697.03"/>
<text text-anchor="middle" x="451.19" y="-713.39" font-family="Times,serif" font-size="14.00">0&#45;9 A&#45;Fa&#45;f</text>
</g>
<!-- Q5 -->
<g id="node9" class="node">
<title>Q5</title>
<ellipse fill="none" stroke="black" cx="167.95" cy="-494.09" rx="32.49" ry="32.49"/>
<text text-anchor="middle" x="167.95" y="-490.39" font-family="Times,serif" font-size="14.00">Zero*</text>
</g>
<!-- Q5&#45;&gt;Qerr3 -->
<g id="edge21" class="edge">
<title>Q5&#45;&gt;Qerr3</title>
<path fill="none" stroke="black" d="M200.58,-495.69C241.25,-497.66 314.09,-500.89 376.45,-502.09 646.58,-507.3 715.04,-509.51 984.12,-485.09 986.8,-484.85 989.55,-484.56 992.32,-484.24"/>
<polygon fill="black" stroke="black" points="992.86,-487.7 1002.33,-482.96 991.97,-480.75 992.86,-487.7"/>
<text text-anchor="middle" x="601.43" y="-508.89" font-family="Times,serif" font-size="14.00">A&#45;Za&#45;z А&#45;ЯЁа&#45;яё _ .</text>
</g>
<!-- Q6 -->
<g id="node10" class="node">
<title>Q6</title>
<ellipse fill="none" stroke="black" cx="451.19" cy="-229.09" rx="44.39" ry="44.39"/>
<text text-anchor="middle" x="451.19" y="-225.39" font-family="Times,serif" font-size="14.00">Number*</text>
</g>
<!-- Q5&#45;&gt;Q6 -->
<g id="edge10" class="edge">
<title>Q5&#45;&gt;Q6</title>
<path fill="none" stroke="black" d="M192.44,-471.95C240.81,-426.38 351.91,-321.7 411.22,-265.82"/>
<polygon fill="black" stroke="black" points="413.66,-268.33 418.53,-258.92 408.86,-263.23 413.66,-268.33"/>
<text text-anchor="middle" x="275.97" y="-354.25" font-family="Times,serif" font-size="14.00">0&#45;9 A&#45;Fa&#45;f</text>
</g>
<!-- Q8 -->
<g id="node12" class="node">
<title>Q8</title>
<ellipse fill="none" stroke="black" cx="451.19" cy="-418.09" rx="74.99" ry="74.99"/>
<text text-anchor="middle" x="451.19" y="-414.39" font-family="Times,serif" font-size="14.00">Zero basePostfix*</text>
</g>
<!-- Q5&#45;&gt;Q8 -->
<g id="edge13" class="edge">
<title>Q5&#45;&gt;Q8</title>
<path fill="none" stroke="black" d="M199.58,-485.81C239.96,-474.9 312.49,-455.3 369.17,-439.99"/>
<polygon fill="black" stroke="black" points="370.1,-443.36 378.84,-437.37 368.27,-436.6 370.1,-443.36"/>
<text text-anchor="middle" x="300.95" y="-476.89" font-family="Times,serif" font-size="14.00">BDHOQTY bdhoqty</text>
</g>
<!-- Q6&#45;&gt;Qerr4 -->
<g id="edge24" class="edge">
<title>Q6&#45;&gt;Qerr4</title>
<path fill="none" stroke="black" d="M495.33,-226.56C603.62,-220.22 885.84,-203.68 991.6,-197.48"/>
<polygon fill="black" stroke="black" points="992.08,-200.96 1001.86,-196.88 991.67,-193.97 992.08,-200.96"/>
<text text-anchor="middle" x="764.03" y="-219.89" font-family="Times,serif" font-size="14.00">A&#45;Za&#45;z А&#45;ЯЁа&#45;яё _ .</text>
</g>
<!-- Q6&#45;&gt;Q6 -->
<g id="edge11" class="edge">
<title>Q6&#45;&gt;Q6</title>
<path fill="none" stroke="black" d="M423.4,-263.63C421.13,-278.53 430.39,-291.29 451.19,-291.29 466.95,-291.29 476.09,-283.96 478.6,-273.93"/>
<polygon fill="black" stroke="black" points="482.11,-273.75 478.98,-263.63 475.12,-273.5 482.11,-273.75"/>
<text text-anchor="middle" x="451.19" y="-295.09" font-family="Times,serif" font-size="14.00">0&#45;9 A&#45;Fa&#45;f</text>
</g>
<!-- Q7 -->
<g id="node11" class="node">
<title>Q7</title>
<ellipse fill="none" stroke="black" cx="764.03" cy="-87.09" rx="87.18" ry="87.18"/>
<text text-anchor="middle" x="764.03" y="-83.39" font-family="Times,serif" font-size="14.00">Number basePostfix*</text>
</g>
<!-- Q6&#45;&gt;Q7 -->
<g id="edge12" class="edge">
<title>Q6&#45;&gt;Q7</title>
<path fill="none" stroke="black" d="M490.25,-208.35C506.63,-199.64 526.08,-189.58 543.93,-181.09 586.07,-161.07 633.57,-140.45 673.55,-123.65"/>
<polygon fill="black" stroke="black" points="675.14,-126.78 683.01,-119.69 672.44,-120.32 675.14,-126.78"/>
<text text-anchor="middle" x="601.43" y="-184.89" font-family="Times,serif" font-size="14.00">BDHOQTY bdhoqty</text>
</g>
<!-- Q7&#45;&gt;Qerr4 -->
<g id="edge25" class="edge">
<title>Q7&#45;&gt;Qerr4</title>
<path fill="none" stroke="black" d="M845.25,-119.5C894.89,-139.54 956.29,-164.35 994.92,-179.95"/>
<polygon fill="black" stroke="black" points="993.65,-183.21 1004.23,-183.71 996.27,-176.72 993.65,-183.21"/>
<text text-anchor="middle" x="926.62" y="-178.89" font-family="Times,serif" font-size="14.00">A&#45;Za&#45;z А&#45;ЯЁа&#45;яё _ .</text>
</g>
<!-- Q8&#45;&gt;Qerr3 -->
<g id="edge22" class="edge">
<title>Q8&#45;&gt;Qerr3</title>
<path fill="none" stroke="black" d="M525.15,-430.13C569.04,-437.03 626.08,-445.43 676.93,-451.09 790.8,-463.76 925.85,-472.22 991.92,-475.94"/>
<polygon fill="black" stroke="black" points="991.74,-479.44 1001.92,-476.5 992.13,-472.45 991.74,-479.44"/>
<text text-anchor="middle" x="764.03" y="-469.89" font-family="Times,serif" font-size="14.00">A&#45;Za&#45;z А&#45;ЯЁа&#45;яё _ .</text>
</g>
<!-- Q9 -->
<g id="node13" class="node">
<title>Q9</title>
<ellipse fill="none" stroke="black" cx="764.03" cy="-326.09" rx="83.39" ry="83.39"/>
<text text-anchor="middle" x="764.03" y="-322.39" font-family="Times,serif" font-size="14.00">Number basePrefix*</text>
</g>
<!-- Q8&#45;&gt;Q9 -->
<g id="edge14" class="edge">
<title>Q8&#45;&gt;Q9</title>
<path fill="none" stroke="black" d="M523.11,-397.1C567.96,-383.83 626.28,-366.57 674.19,-352.39"/>
<polygon fill="black" stroke="black" points="675.34,-355.69 683.94,-349.5 673.36,-348.98 675.34,-355.69"/>
<text text-anchor="middle" x="601.43" y="-393.89" font-family="Times,serif" font-size="14.00">0&#45;9 A&#45;Fa&#45;f</text>
</g>
<!-- Q9&#45;&gt;Qerr3 -->
<g id="edge23" class="edge">
<title>Q9&#45;&gt;Qerr3</title>
<path fill="none" stroke="black" d="M837.36,-366.01C880.21,-389.82 935.46,-420.83 984.12,-449.09 988.39,-451.57 992.85,-454.2 997.26,-456.82"/>
<polygon fill="black" stroke="black" points="995.8,-460.02 1006.18,-462.15 999.39,-454.02 995.8,-460.02"/>
<text text-anchor="middle" x="926.62" y="-452.89" font-family="Times,serif" font-size="14.00">A&#45;Za&#45;z А&#45;ЯЁа&#45;яё _ .</text>
</g>
<!-- Q9&#45;&gt;Q9 -->
<g id="edge15" class="edge">
<title>Q9&#45;&gt;Q9</title>
<path fill="none" stroke="black" d="M735.67,-404.59C739.55,-417.99 749,-427.28 764.03,-427.28 775.3,-427.28 783.43,-422.06 788.43,-413.79"/>
<polygon fill="black" stroke="black" points="791.65,-415.16 792.38,-404.59 785.22,-412.39 791.65,-415.16"/>
<text text-anchor="middle" x="764.03" y="-431.08" font-family="Times,serif" font-size="14.00">0&#45;9 A&#45;Fa&#45;f</text>
</g>
<!-- Q0 -->
<g id="node14" class="node">
<title>Q0</title>
<ellipse fill="none" stroke="black" cx="46" cy="-846.09" rx="21.4" ry="21.4"/>
<text text-anchor="middle" x="46" y="-842.39" font-family="Times,serif" font-size="14.00">Q0</text>
</g>
<!-- Q0&#45;&gt;Q10 -->
<g id="edge16" class="edge">
<title>Q0&#45;&gt;Q10</title>
<path fill="none" stroke="black" d="M50.36,-867.39C57.09,-905.61 74.74,-987.44 110.45,-1047.09 114.32,-1053.56 119.05,-1059.86 124.11,-1065.79"/>
<polygon fill="black" stroke="black" points="121.86,-1068.52 131.16,-1073.61 127.06,-1063.84 121.86,-1068.52"/>
<text text-anchor="middle" x="88.95" y="-1014.89" font-family="Times,serif" font-size="14.00">,</text>
</g>
<!-- Q0&#45;&gt;Q11 -->
<g id="edge17" class="edge">
<title>Q0&#45;&gt;Q11</title>
<path fill="none" stroke="black" d="M51.31,-867.11C56.51,-888.35 66.95,-921.21 85.45,-944.09 95.51,-956.55 109.23,-967.15 122.53,-975.58"/>
<polygon fill="black" stroke="black" points="120.81,-978.63 131.18,-980.81 124.43,-972.64 120.81,-978.63"/>
<text text-anchor="middle" x="88.95" y="-952.89" font-family="Times,serif" font-size="14.00">:</text>
</g>
<!-- Q0&#45;&gt;Qerr -->
<g id="edge19" class="edge">
<title>Q0&#45;&gt;Qerr</title>
<path fill="none" stroke="black" d="M66.13,-854.26C131.62,-881.04 352.33,-961.68 525.93,-911.09 608.68,-886.98 690.1,-824.27 732.64,-787.69"/>
<polygon fill="black" stroke="black" points="735.13,-790.17 740.37,-780.96 730.53,-784.89 735.13,-790.17"/>
<text text-anchor="middle" x="300.95" y="-928.89" font-family="Times,serif" font-size="14.00">*</text>
</g>
<!-- Q0&#45;&gt;Q1 -->
<g id="edge2" class="edge">
<title>Q0&#45;&gt;Q1</title>
<path fill="none" stroke="black" d="M67.55,-845.33C129.31,-843.03 314.42,-836.14 402.55,-832.86"/>
<polygon fill="black" stroke="black" points="402.94,-836.35 412.8,-832.48 402.68,-829.36 402.94,-836.35"/>
<text text-anchor="middle" x="167.95" y="-846.89" font-family="Times,serif" font-size="14.00">A&#45;Za&#45;z А&#45;ЯЁа&#45;яё _ .</text>
</g>
<!-- Q0&#45;&gt;Q3 -->
<g id="edge5" class="edge">
<title>Q0&#45;&gt;Q3</title>
<path fill="none" stroke="black" d="M63.93,-833.95C78.17,-823.74 99.25,-808.63 118.64,-794.73"/>
<polygon fill="black" stroke="black" points="120.73,-797.53 126.82,-788.86 116.66,-791.84 120.73,-797.53"/>
<text text-anchor="middle" x="91.7" y="-800.33" font-family="Times,serif" font-size="14.00">$</text>
</g>
<!-- Q0&#45;&gt;Q5 -->
<g id="edge8" class="edge">
<title>Q0&#45;&gt;Q5</title>
<path fill="none" stroke="black" d="M53.88,-825.9C73.1,-769.49 127.65,-609.42 153.3,-534.15"/>
<polygon fill="black" stroke="black" points="156.66,-535.13 156.57,-524.54 150.03,-532.87 156.66,-535.13"/>
<text text-anchor="middle" x="88.95" y="-735.89" font-family="Times,serif" font-size="14.00">0</text>
</g>
<!-- Q0&#45;&gt;Q6 -->
<g id="edge9" class="edge">
<title>Q0&#45;&gt;Q6</title>
<path fill="none" stroke="black" d="M48.73,-824.68C54.84,-752.6 76.79,-519.52 110.45,-453.09 169.25,-337.06 319.21,-272.06 398.79,-244.71"/>
<polygon fill="black" stroke="black" points="400.24,-247.91 408.6,-241.4 398.01,-241.28 400.24,-247.91"/>
<text text-anchor="middle" x="80.95" y="-441.88" font-family="Times,serif" font-size="14.00">1&#45;9 A&#45;Fa&#45;f</text>
</g>
<!-- Q0&#45;&gt;Q0 -->
<g id="edge1" class="edge">
<title>Q0&#45;&gt;Q0</title>
<path fill="none" stroke="black" d="M38.36,-866.39C37.3,-876.51 39.85,-885.54 46,-885.54 49.94,-885.54 52.4,-881.83 53.39,-876.51"/>
<polygon fill="black" stroke="black" points="56.89,-876.47 53.64,-866.39 49.89,-876.3 56.89,-876.47"/>
<text text-anchor="middle" x="46" y="-889.34" font-family="Times,serif" font-size="14.00">Whitespace, Tab</text>
</g>
</g>
</svg>
